<svg xmlns="http://www.w3.org/2000/svg" width="20" height="20" viewBox="0 0 20 20"><title>at</title><path d="M9.6,8.2a1.61,1.61,0,0,0-1.3.6,2.11,2.11,0,0,0-.5,1.3,1.75,1.75,0,0,0,.4,1.2,1.46,1.46,0,0,0,1.3.7,1.38,1.38,0,0,0,1.1-.6,2.39,2.39,0,0,0,.5-1.4,2,2,0,0,0-.6-1.5A2.39,2.39,0,0,0,9.6,8.2Z" style="fill:#0360a6"/><path d="M0,0V20H20V0ZM15.4,12.5l-.4.7H11.5l-.2-.6a2.73,2.73,0,0,1-1.9.8h0a2.66,2.66,0,0,1-2.2-1.1A3.46,3.46,0,0,1,7.2,8,2.87,2.87,0,0,1,9.4,7a3.55,3.55,0,0,1,1,.2c.2.1.5.2.6.4V6.8h1.5v5.3h1.6a5.75,5.75,0,0,0,.5-2.6,4,4,0,0,0-1.3-3A4.44,4.44,0,0,0,9.9,5.2,4.76,4.76,0,0,0,6.5,6.6,5.55,5.55,0,0,0,5.3,9.9a4.84,4.84,0,0,0,1.3,3.4A4.48,4.48,0,0,0,10,14.8h.2V16H10a5.62,5.62,0,0,1-4.4-1.9A6.26,6.26,0,0,1,4,9.9,5.91,5.91,0,0,1,9.9,4H10a6.56,6.56,0,0,1,4.4,1.7A5.46,5.46,0,0,1,16,9.5,8,8,0,0,1,15.4,12.5Z" style="fill:#0360a6"/></svg>