<svg id="Layer_1" data-name="Layer 1" xmlns="http://www.w3.org/2000/svg" width="17.9" height="20" viewBox="0 0 17.9 20"><defs><style>.cls-1{fill:#333;}</style></defs><title>share</title><path class="cls-1" d="M15.4,14.1a3,3,0,0,0-2,.8L6.2,10.7a1.7,1.7,0,0,0,.1-.7,1.7,1.7,0,0,0-.1-.7l7.1-4.1a3,3,0,0,0,5-2.2,3,3,0,0,0-6,0,1.7,1.7,0,0,0,.1.7l-7,4.1a2.79,2.79,0,0,0-2-.8,3,3,0,1,0,0,6,2.79,2.79,0,0,0,2-.8l7.1,4.2c0,.2-.1.4-.1.7a2.9,2.9,0,0,0,5.8,0,2.84,2.84,0,0,0-2.68-3Z" transform="translate(-0.4 0)"/></svg>