<svg xmlns="http://www.w3.org/2000/svg" width="20" height="20" viewBox="0 0 20 20"><title>Asset 1</title><path d="M0,0V20H20V0ZM16,6.9v.4a8.79,8.79,0,0,1-8.7,8.8,9,9,0,0,1-4.8-1.4h.7A6.46,6.46,0,0,0,7,13.4a3.13,3.13,0,0,1-2.9-2.1c.2,0,.4.1.6.1a2.2,2.2,0,0,0,.8-.1A3.1,3.1,0,0,1,3,8.3H3a4,4,0,0,0,1.5.3,3.05,3.05,0,0,1-1-4.1A8.86,8.86,0,0,0,9.9,7.7,3,3,0,0,1,12.2,4a3.06,3.06,0,0,1,2.9.9,5,5,0,0,0,2-.8,2.91,2.91,0,0,1-1.4,1.7,6.07,6.07,0,0,0,1.8-.5A4.63,4.63,0,0,1,16,6.9Z" style="fill:#0360a6"/></svg>